<svg width="346" height="200" viewBox="0 0 346 200" fill="none" xmlns="http://www.w3.org/2000/svg">
<rect y="19.2489" width="57.6894" height="57.6894" rx="15.0176" transform="rotate(-10.2332 0 19.2489)" fill="#D8C7A6"/>
<path d="M23.8777 58.5774L18.7665 30.2653L24.7525 29.1847L26.8613 40.8662L39.0128 38.6725L36.904 26.991L42.8761 25.9128L47.9872 54.225L42.0151 55.3031L39.9038 43.6077L27.7522 45.8014L29.8636 57.4968L23.8777 58.5774Z" fill="black"/>
<path d="M55.4494 60.0772C54.9568 60.1661 54.4955 60.1482 54.0655 60.0235C53.6354 59.8989 53.2706 59.6873 52.9711 59.3887C52.6715 59.0902 52.4711 58.7246 52.3699 58.292L53.3775 58.1101C53.487 58.4921 53.7214 58.7822 54.0809 58.9803C54.4426 59.1751 54.8432 59.2328 55.2827 59.1535C55.6354 59.0898 55.9339 58.9507 56.1784 58.736C56.4257 58.5208 56.6017 58.255 56.7064 57.9384C56.8134 57.6185 56.8338 57.2752 56.7676 56.9085C56.6999 56.5335 56.5569 56.2139 56.3387 55.9498C56.1228 55.6824 55.8567 55.4891 55.5404 55.3699C55.2241 55.2507 54.8823 55.2228 54.5152 55.2862C54.2516 55.3309 53.9888 55.4203 53.7268 55.5543C53.4644 55.6855 53.2552 55.8316 53.0993 55.9927L52.1041 56.051L51.8607 51.7249L56.3279 50.9185L56.4946 51.8421L52.9007 52.4909L53.0562 55.0814L53.1066 55.0723C53.2577 54.9005 53.4578 54.7444 53.707 54.6041C53.9563 54.4637 54.225 54.3675 54.5133 54.3155C55.0395 54.2205 55.5311 54.2618 55.988 54.4394C56.4473 54.6137 56.8336 54.8966 57.147 55.288C57.4633 55.6789 57.6717 56.1528 57.7722 56.7098C57.8713 57.2584 57.8365 57.7705 57.668 58.246C57.5018 58.7182 57.2271 59.1175 56.8438 59.4439C56.46 59.7676 55.9952 59.9786 55.4494 60.0772Z" fill="black"/>
<rect x="40" y="118.828" width="57.6894" height="57.6894" rx="15.0176" transform="rotate(-1.81562 40 118.828)" fill="#D8C7A6"/>
<path d="M58.378 161.212L58.2636 157.603L71.9749 137.014L57.5972 137.47L57.4384 132.457L79.4541 131.759L79.5685 135.368L65.8432 155.957L80.2349 155.501L80.3937 160.514L58.378 161.212Z" fill="black"/>
<path d="M88.9358 158.47L89.2126 167.203L88.1551 167.237L87.9134 159.612L87.8622 159.614L85.775 161.097L85.7409 160.023L87.8782 158.504L88.9358 158.47Z" fill="black"/>
<rect x="244.265" y="98" width="57.6894" height="57.6894" rx="15.0176" transform="rotate(11.2606 244.265 98)" fill="#D8C7A6"/>
<path d="M273.776 127.811C273.716 127.102 273.563 126.456 273.317 125.872C273.072 125.279 272.732 124.753 272.299 124.294C271.876 123.828 271.362 123.435 270.758 123.114C270.162 122.795 269.479 122.558 268.707 122.405C267.265 122.118 265.926 122.223 264.691 122.722C263.464 123.223 262.412 124.097 261.533 125.345C260.656 126.584 260.022 128.186 259.631 130.151C259.239 132.117 259.205 133.848 259.528 135.345C259.85 136.841 260.486 138.061 261.435 139.004C262.385 139.938 263.604 140.553 265.092 140.85C266.442 141.119 267.642 141.109 268.693 140.822C269.754 140.527 270.625 139.989 271.306 139.208C271.996 138.429 272.46 137.437 272.7 136.234L273.877 136.655L266.602 135.206L267.497 130.715L279.304 133.066L278.596 136.62C278.102 139.1 277.154 141.127 275.753 142.7C274.353 144.264 272.638 145.346 270.609 145.944C268.582 146.534 266.384 146.593 264.014 146.121C261.369 145.594 259.161 144.548 257.391 142.983C255.623 141.409 254.393 139.431 253.702 137.049C253.023 134.66 252.979 131.978 253.571 129.002C254.027 126.715 254.763 124.742 255.781 123.083C256.81 121.416 258.051 120.078 259.503 119.068C260.955 118.058 262.545 117.387 264.273 117.053C266.001 116.719 267.797 116.738 269.661 117.109C271.26 117.427 272.701 117.957 273.985 118.7C275.272 119.434 276.363 120.329 277.261 121.386C278.167 122.445 278.844 123.626 279.291 124.927C279.741 126.22 279.923 127.584 279.838 129.018L273.776 127.811Z" fill="black"/>
<path d="M278.244 155.655L278.394 154.902L281.839 152.369C282.244 152.072 282.58 151.812 282.848 151.587C283.117 151.359 283.326 151.137 283.476 150.92C283.63 150.701 283.733 150.461 283.785 150.199C283.845 149.897 283.825 149.622 283.724 149.373C283.625 149.124 283.464 148.915 283.239 148.746C283.015 148.576 282.748 148.461 282.438 148.399C282.109 148.334 281.808 148.345 281.536 148.433C281.266 148.518 281.041 148.669 280.858 148.885C280.679 149.102 280.557 149.373 280.492 149.699L279.504 149.503C279.604 149.001 279.808 148.583 280.115 148.25C280.422 147.916 280.796 147.684 281.237 147.551C281.681 147.419 282.153 147.403 282.652 147.502C283.154 147.602 283.578 147.797 283.923 148.086C284.269 148.375 284.516 148.721 284.665 149.125C284.813 149.529 284.844 149.951 284.756 150.392C284.693 150.707 284.575 151.004 284.4 151.282C284.229 151.559 283.968 151.853 283.616 152.166C283.267 152.476 282.794 152.846 282.198 153.276L279.864 154.951L279.85 155.018L283.834 155.811L283.65 156.732L278.244 155.655Z" fill="black"/>
<rect x="143" y="142" width="57.6894" height="57.6894" rx="15.0176" fill="#D8C7A6"/>
<path d="M176.766 164.449C176.654 163.316 176.171 162.436 175.319 161.808C174.467 161.181 173.31 160.867 171.849 160.867C170.857 160.867 170.018 161.007 169.335 161.288C168.651 161.56 168.127 161.939 167.761 162.426C167.406 162.913 167.228 163.466 167.228 164.084C167.209 164.599 167.317 165.049 167.551 165.433C167.794 165.816 168.127 166.149 168.548 166.43C168.969 166.701 169.456 166.94 170.009 167.146C170.562 167.343 171.152 167.512 171.779 167.652L174.364 168.27C175.619 168.551 176.771 168.926 177.82 169.394C178.868 169.862 179.777 170.438 180.545 171.122C181.313 171.806 181.907 172.611 182.329 173.538C182.76 174.465 182.98 175.528 182.989 176.727C182.98 178.488 182.53 180.014 181.641 181.306C180.76 182.589 179.487 183.587 177.82 184.299C176.162 185.001 174.162 185.352 171.821 185.352C169.499 185.352 167.476 184.996 165.753 184.285C164.039 183.573 162.7 182.519 161.735 181.124C160.78 179.719 160.279 177.982 160.232 175.912H166.118C166.183 176.877 166.46 177.682 166.947 178.328C167.443 178.965 168.103 179.447 168.927 179.775C169.761 180.094 170.702 180.253 171.751 180.253C172.781 180.253 173.675 180.103 174.434 179.803C175.202 179.504 175.797 179.087 176.218 178.553C176.64 178.019 176.85 177.406 176.85 176.713C176.85 176.067 176.658 175.523 176.274 175.083C175.9 174.643 175.347 174.269 174.617 173.959C173.896 173.65 173.011 173.369 171.962 173.117L168.829 172.33C166.403 171.74 164.488 170.817 163.083 169.563C161.679 168.308 160.981 166.617 160.99 164.491C160.981 162.749 161.445 161.228 162.381 159.926C163.327 158.624 164.624 157.608 166.272 156.877C167.921 156.147 169.794 155.782 171.891 155.782C174.027 155.782 175.89 156.147 177.482 156.877C179.084 157.608 180.329 158.624 181.219 159.926C182.109 161.228 182.568 162.735 182.596 164.449H176.766Z" fill="black"/>
<path d="M190.382 192.03C189.796 192.03 189.279 191.926 188.829 191.718C188.383 191.508 188.034 191.219 187.784 190.852C187.534 190.482 187.41 190.061 187.413 189.589C187.41 189.22 187.483 188.878 187.631 188.565C187.778 188.25 187.98 187.987 188.236 187.776C188.495 187.563 188.784 187.428 189.102 187.371V187.32C188.684 187.211 188.352 186.977 188.104 186.616C187.857 186.252 187.734 185.838 187.737 185.374C187.734 184.93 187.847 184.534 188.074 184.184C188.302 183.834 188.615 183.558 189.013 183.356C189.414 183.154 189.87 183.053 190.382 183.053C190.889 183.053 191.341 183.154 191.739 183.356C192.137 183.558 192.45 183.834 192.678 184.184C192.908 184.534 193.025 184.93 193.028 185.374C193.025 185.838 192.898 186.252 192.648 186.616C192.4 186.977 192.072 187.211 191.662 187.32V187.371C191.978 187.428 192.262 187.563 192.516 187.776C192.769 187.987 192.971 188.25 193.121 188.565C193.272 188.878 193.349 189.22 193.352 189.589C193.349 190.061 193.221 190.482 192.968 190.852C192.718 191.219 192.369 191.508 191.923 191.718C191.479 191.926 190.965 192.03 190.382 192.03ZM190.382 191.091C190.778 191.091 191.119 191.027 191.406 190.899C191.694 190.771 191.915 190.59 192.072 190.357C192.228 190.124 192.308 189.851 192.311 189.538C192.308 189.208 192.223 188.917 192.055 188.663C191.887 188.41 191.658 188.211 191.368 188.066C191.081 187.921 190.752 187.849 190.382 187.849C190.01 187.849 189.677 187.921 189.384 188.066C189.094 188.211 188.865 188.41 188.697 188.663C188.532 188.917 188.451 189.208 188.454 189.538C188.451 189.851 188.527 190.124 188.68 190.357C188.837 190.59 189.06 190.771 189.35 190.899C189.64 191.027 189.984 191.091 190.382 191.091ZM190.382 186.944C190.695 186.944 190.973 186.882 191.214 186.756C191.459 186.631 191.651 186.456 191.79 186.232C191.93 186.007 192.001 185.744 192.004 185.442C192.001 185.147 191.931 184.889 191.795 184.67C191.658 184.448 191.469 184.278 191.227 184.158C190.985 184.036 190.704 183.975 190.382 183.975C190.055 183.975 189.769 184.036 189.525 184.158C189.28 184.278 189.091 184.448 188.957 184.67C188.824 184.889 188.758 185.147 188.761 185.442C188.758 185.744 188.825 186.007 188.962 186.232C189.101 186.456 189.293 186.631 189.538 186.756C189.782 186.882 190.064 186.944 190.382 186.944Z" fill="black"/>
<rect x="101" y="32" width="57.6894" height="57.6894" rx="15.0176" fill="#D8C7A6"/>
<path d="M122.47 74.9447H115.951L125.883 46.1749H133.722L143.64 74.9447H137.121L129.915 52.7493H129.69L122.47 74.9447ZM122.062 63.6363H137.459V68.3844H122.062V63.6363Z" fill="black"/>
<path d="M145.584 81.9102V81.1422L148.468 77.9851C148.806 77.6154 149.085 77.294 149.304 77.0209C149.523 76.745 149.685 76.4862 149.79 76.2444C149.898 75.9998 149.952 75.7439 149.952 75.4765C149.952 75.1693 149.878 74.9034 149.731 74.6787C149.586 74.454 149.386 74.2805 149.133 74.1582C148.88 74.0359 148.596 73.9747 148.28 73.9747C147.944 73.9747 147.651 74.0444 147.401 74.1838C147.154 74.3203 146.962 74.5123 146.825 74.7598C146.691 75.0072 146.625 75.2973 146.625 75.6301H145.618C145.618 75.1181 145.736 74.6687 145.972 74.2819C146.208 73.8951 146.529 73.5936 146.936 73.3775C147.346 73.1613 147.805 73.0532 148.314 73.0532C148.826 73.0532 149.28 73.1613 149.675 73.3775C150.07 73.5936 150.38 73.8852 150.605 74.2521C150.83 74.619 150.942 75.0271 150.942 75.4765C150.942 75.7979 150.884 76.1122 150.767 76.4194C150.654 76.7237 150.454 77.0636 150.17 77.439C149.888 77.8116 149.497 78.2667 148.997 78.8043L147.034 80.9033V80.9716H151.096V81.9102H145.584Z" fill="black"/>
<rect x="187.096" width="57.6894" height="57.6894" rx="15.0176" transform="rotate(7.06516 187.096 0)" fill="#D8C7A6"/>
<path d="M201.47 45.0549L205.009 16.5036L211.046 17.2517L208.124 40.8261L220.364 42.3431L219.747 47.3201L201.47 45.0549Z" fill="black"/>
<path d="M224.896 54.2669C224.541 54.2172 224.194 54.1053 223.854 53.9314C223.515 53.7575 223.217 53.4985 222.962 53.1545C222.707 52.8076 222.523 52.3592 222.411 51.8093C222.299 51.2566 222.292 50.5795 222.392 49.7778C222.487 49.0101 222.643 48.3388 222.86 47.7638C223.078 47.1861 223.349 46.711 223.673 46.3385C223.998 45.9631 224.367 45.6935 224.78 45.5298C225.195 45.3664 225.647 45.3149 226.136 45.3754C226.621 45.4356 227.041 45.5865 227.395 45.8281C227.752 46.0673 228.03 46.3739 228.227 46.748C228.424 47.1221 228.53 47.538 228.545 47.9955L227.512 47.8675C227.464 47.466 227.318 47.1198 227.073 46.8286C226.829 46.5375 226.478 46.3636 226.02 46.3069C225.348 46.2236 224.783 46.4502 224.324 46.9865C223.868 47.5232 223.573 48.3193 223.439 49.3746L223.507 49.383C223.695 49.1626 223.908 48.9813 224.146 48.8388C224.387 48.6939 224.647 48.5914 224.923 48.5311C225.2 48.4708 225.487 48.4591 225.783 48.4958C226.28 48.5574 226.719 48.7379 227.101 49.0374C227.482 49.334 227.77 49.7151 227.965 50.1805C228.16 50.6432 228.222 51.154 228.153 51.7128C228.087 52.2491 227.906 52.7254 227.611 53.1417C227.316 53.5551 226.935 53.8661 226.468 54.0747C226.004 54.2809 225.48 54.3449 224.896 54.2669ZM225.012 53.3354C225.367 53.3795 225.697 53.3301 226.002 53.1873C226.309 53.0448 226.563 52.8341 226.763 52.5552C226.967 52.2766 227.092 51.9538 227.137 51.5869C227.181 51.2284 227.141 50.8924 227.017 50.5789C226.896 50.263 226.706 50.0002 226.448 49.7905C226.193 49.5813 225.888 49.4546 225.532 49.4105C225.264 49.3773 225.008 49.3999 224.763 49.4785C224.519 49.5543 224.298 49.673 224.1 49.8348C223.905 49.9969 223.743 50.1904 223.615 50.4153C223.487 50.6373 223.407 50.8782 223.375 51.1379C223.333 51.4822 223.373 51.814 223.497 52.1331C223.624 52.4526 223.817 52.7216 224.076 52.94C224.338 53.1588 224.65 53.2906 225.012 53.3354Z" fill="black"/>
<rect x="280" y="9.12256" width="57.6894" height="57.6894" rx="15.0176" transform="rotate(-8.09402 280 9.12256)" fill="#D8C7A6"/>
<path d="M325.726 31.4669C326.168 34.573 325.955 37.2992 325.087 39.6455C324.229 41.9906 322.871 43.8817 321.013 45.3188C319.163 46.7454 316.982 47.6374 314.469 47.9947C311.938 48.3547 309.585 48.1029 307.409 47.2393C305.234 46.3757 303.407 44.9376 301.929 42.9248C300.451 40.9121 299.491 38.3573 299.051 35.2605C298.609 32.1544 298.817 29.4289 299.676 27.0838C300.534 24.7388 301.888 22.853 303.738 21.4264C305.587 19.9906 307.776 19.0927 310.308 18.7327C312.82 18.3754 315.164 18.6285 317.34 19.4921C319.523 20.345 321.354 21.7779 322.832 23.7907C324.32 25.8021 325.284 28.3608 325.726 31.4669ZM319.62 32.3352C319.334 30.3232 318.792 28.6693 317.993 27.3735C317.203 26.0764 316.215 25.148 315.028 24.5883C313.842 24.0287 312.521 23.8524 311.065 24.0594C309.61 24.2664 308.39 24.804 307.407 25.6722C306.423 26.5404 305.729 27.7082 305.323 29.1754C304.926 30.6413 304.87 32.3802 305.156 34.3922C305.443 36.4042 305.981 38.0588 306.77 39.3559C307.57 40.6517 308.562 41.5794 309.749 42.1391C310.935 42.6987 312.256 42.875 313.712 42.668C315.167 42.461 316.387 41.9234 317.37 41.0552C318.353 40.187 319.043 39.0199 319.44 37.554C319.847 36.0868 319.907 34.3472 319.62 32.3352Z" fill="black"/>
<path d="M330.843 52.4249C330.285 52.5042 329.774 52.4792 329.311 52.3498C328.85 52.22 328.467 52.0029 328.162 51.6986C327.86 51.3911 327.665 51.0123 327.578 50.5621L328.643 50.4108C328.705 50.6863 328.835 50.9135 329.033 51.0922C329.23 51.2681 329.473 51.3915 329.762 51.4625C330.051 51.5335 330.361 51.5453 330.694 51.4981C331.065 51.4452 331.386 51.3336 331.654 51.1632C331.923 50.9929 332.123 50.7806 332.253 50.5265C332.384 50.2723 332.427 49.9932 332.384 49.6891C332.339 49.3709 332.22 49.1019 332.028 48.8822C331.836 48.6596 331.577 48.501 331.254 48.4063C330.93 48.3115 330.548 48.2954 330.109 48.3579L329.416 48.4564L329.284 47.5271L329.977 47.4286C330.32 47.3798 330.613 47.275 330.854 47.1142C331.099 46.9531 331.278 46.7495 331.392 46.5034C331.51 46.2569 331.547 45.9816 331.503 45.6775C331.462 45.3846 331.361 45.139 331.2 44.9406C331.04 44.7422 330.833 44.5992 330.579 44.5118C330.328 44.424 330.044 44.4027 329.725 44.4479C329.427 44.4904 329.153 44.5853 328.904 44.7328C328.657 44.877 328.466 45.0637 328.329 45.2929C328.191 45.5193 328.136 45.7771 328.163 46.0663L327.149 46.2105C327.102 45.7547 327.182 45.3383 327.39 44.9611C327.597 44.5811 327.894 44.2659 328.281 44.0156C328.67 43.7648 329.114 43.604 329.613 43.5332C330.148 43.4571 330.622 43.5002 331.036 43.6626C331.449 43.8221 331.784 44.0633 332.039 44.386C332.295 44.7088 332.452 45.0743 332.51 45.4826C332.579 45.9698 332.51 46.4033 332.303 46.7833C332.098 47.1629 331.787 47.4499 331.369 47.6443L331.379 47.7119C331.938 47.7243 332.398 47.8959 332.758 48.2268C333.118 48.5549 333.337 48.9934 333.415 49.5425C333.482 50.0128 333.414 50.4534 333.211 50.8643C333.01 51.2721 332.705 51.6142 332.296 51.8907C331.888 52.1672 331.403 52.3452 330.843 52.4249Z" fill="black"/>
</svg>
